<svg style="background:#eadfc6" xmlns="http://www.w3.org/2000/svg" viewBox="0 0 24 16" width="24" height="16" shape-rendering="crispEdges"><rect x="11" y="1" width="2" height="1" fill="#1b2627"/><rect x="10" y="2" width="1" height="1" fill="#1b2627"/><rect x="11" y="2" width="2" height="1" fill="#8fbcb5"/><rect x="13" y="2" width="1" height="1" fill="#1b2627"/><rect x="10" y="3" width="1" height="1" fill="#1b2627"/><rect x="11" y="3" width="1" height="1" fill="#cfe5dd"/><rect x="12" y="3" width="1" height="1" fill="#8fbcb5"/><rect x="13" y="3" width="1" height="1" fill="#1b2627"/><rect x="9" y="4" width="1" height="1" fill="#1b2627"/><rect x="10" y="4" width="1" height="1" fill="#cfe5dd"/><rect x="11" y="4" width="3" height="1" fill="#8fbcb5"/><rect x="14" y="4" width="1" height="1" fill="#1b2627"/><rect x="9" y="5" width="1" height="1" fill="#1b2627"/><rect x="10" y="5" width="1" height="1" fill="#cfe5dd"/><rect x="11" y="5" width="3" height="1" fill="#8fbcb5"/><rect x="14" y="5" width="1" height="1" fill="#1b2627"/><rect x="8" y="6" width="1" height="1" fill="#1b2627"/><rect x="9" y="6" width="1" height="1" fill="#cfe5dd"/><rect x="10" y="6" width="5" height="1" fill="#8fbcb5"/><rect x="15" y="6" width="1" height="1" fill="#1b2627"/><rect x="8" y="7" width="1" height="1" fill="#1b2627"/><rect x="9" y="7" width="1" height="1" fill="#cfe5dd"/><rect x="10" y="7" width="5" height="1" fill="#8fbcb5"/><rect x="15" y="7" width="1" height="1" fill="#1b2627"/><rect x="16" y="7" width="8" height="1" fill="#f3cf6b"/><rect x="7" y="8" width="1" height="1" fill="#1b2627"/><rect x="8" y="8" width="1" height="1" fill="#cfe5dd"/><rect x="9" y="8" width="4" height="1" fill="#8fbcb5"/><rect x="13" y="8" width="2" height="1" fill="#fbecc0"/><rect x="15" y="8" width="1" height="1" fill="#8fbcb5"/><rect x="16" y="8" width="1" height="1" fill="#1b2627"/><rect x="0" y="9" width="7" height="1" fill="#f3cf6b"/><rect x="7" y="9" width="1" height="1" fill="#1b2627"/><rect x="8" y="9" width="5" height="1" fill="#fbecc0"/><rect x="13" y="9" width="3" height="1" fill="#8fbcb5"/><rect x="16" y="9" width="1" height="1" fill="#1b2627"/><rect x="6" y="10" width="1" height="1" fill="#1b2627"/><rect x="7" y="10" width="1" height="1" fill="#cfe5dd"/><rect x="8" y="10" width="5" height="1" fill="#8fbcb5"/><rect x="13" y="10" width="2" height="1" fill="#fbecc0"/><rect x="15" y="10" width="2" height="1" fill="#8fbcb5"/><rect x="17" y="10" width="1" height="1" fill="#1b2627"/><rect x="5" y="11" width="1" height="1" fill="#1b2627"/><rect x="6" y="11" width="1" height="1" fill="#cfe5dd"/><rect x="7" y="11" width="8" height="1" fill="#8fbcb5"/><rect x="15" y="11" width="3" height="1" fill="#fbecc0"/><rect x="18" y="11" width="1" height="1" fill="#1b2627"/><rect x="20" y="11" width="1" height="1" fill="#c08a3e"/><rect x="22" y="11" width="1" height="1" fill="#c08a3e"/><rect x="5" y="12" width="1" height="1" fill="#1b2627"/><rect x="6" y="12" width="1" height="1" fill="#cfe5dd"/><rect x="7" y="12" width="11" height="1" fill="#8fbcb5"/><rect x="18" y="12" width="1" height="1" fill="#1b2627"/><rect x="4" y="13" width="16" height="1" fill="#1b2627"/></svg>